<?xml version="1.0" encoding="utf-8"?>
<!-- Generator: Adobe Illustrator 21.0.0, SVG Export Plug-In . SVG Version: 6.00 Build 0)  -->
<svg version="1.1" id="Слой_1" xmlns="http://www.w3.org/2000/svg" xmlns:xlink="http://www.w3.org/1999/xlink" x="0px" y="0px"
	 viewBox="0 0 382.8 318.1" style="enable-background:new 0 0 382.8 318.1;" xml:space="preserve">
<path d="M131.4,70.5L124,22.1C122,9.4,111,0,98.1,0L9.8,0C4.4,0,0,4.4,0,9.8L0,15c0,5.4,4.4,9.8,9.8,9.8h66.9
	c12.7,0,12.7,11.8,13.7,18.5l24.8,155.1c2.1,13.3,13.5,23.1,27,23.1h195.3c14.4,0,26.7-10.5,29-24.7L382.5,97
	c2.2-13.9-8.5-26.6-22.7-26.6H131.4z"/>
<circle cx="175.2" cy="281.2" r="37"/>
<circle cx="301.6" cy="281.2" r="37"/>
	<style>
		path,
		circle{
			fill: #fff;
		}
	</style>
</svg>
