<?xml version="1.0" encoding="utf-8"?>
<!-- Generator: Adobe Illustrator 21.0.0, SVG Export Plug-In . SVG Version: 6.00 Build 0)  -->
<svg version="1.1" id="Слой_1" xmlns="http://www.w3.org/2000/svg" xmlns:xlink="http://www.w3.org/1999/xlink" x="0px" y="0px"
	 viewBox="0 0 22 22.1" style="enable-background:new 0 0 22 22.1;" xml:space="preserve">
<style type="text/css">
	.st0{fill-rule:evenodd;clip-rule:evenodd;}
</style>
<path class="st0" d="M5,8.1h7v2H5V8.1z"/>
<path class="st0" d="M5,14.1h17v2H5V14.1z"/>
<path class="st0" d="M5,20.2h17v1.9H5V20.2z"/>
<path class="st0" d="M0,8.1h3v2H0V8.1z"/>
<path class="st0" d="M0,14.1h3v2H0V14.1z"/>
<path class="st0" d="M0,20.2h3v1.9H0V20.2z"/>
<path class="st0" d="M18,0v10.1h-2V0H18z"/>
<path class="st0" d="M12,4.1h10v2H12V4.1z"/>
<path class="st0" d="M18,0v10.1h-2V0H18z"/>
<path class="st0" d="M18,0v10.1h-2V0H18z"/>
</svg>
