<?xml version="1.0" encoding="utf-8"?>
<!-- Generator: Adobe Illustrator 21.0.0, SVG Export Plug-In . SVG Version: 6.00 Build 0)  -->
<svg version="1.1" xmlns="http://www.w3.org/2000/svg" xmlns:xlink="http://www.w3.org/1999/xlink" x="0px" y="0px"
	 viewBox="0 0 18 22" style="enable-background:new 0 0 18 22;" xml:space="preserve">
<style type="text/css">
	.st0{enable-background:new    ;}
	.st1{fill-rule:evenodd;clip-rule:evenodd;fill:#003366;}
	.st2{fill-rule:evenodd;clip-rule:evenodd;fill:#69B8E2;}
	.st3{fill:#FFFFFF;}
</style>
<g id="Фигура_4_1_" class="st0">
</g>
<g id="Фигура_12_1_" class="st0">
	<path class="st1" d="M17,0L17,0L5,0H4L0,4v1v17h18V0H17z M17,16H1V5h4V1h12V16z"/>
	<path class="st2" d="M16,3.9h-5v2H2v9h14V3.9z M12,5h3v1h-3V5z M12,12v-1h3v1H12z M15,13v1h-3v-1H15z M12,10V9h3v1H12z M12,8V7h3v1
		H12z M3,7h8v1H3V7z M3,9h8v1H3V9z M3,11h8v1H3V11z M3,13h8v1H3V13z"/>
</g>
<g id="JPG">
	<g>
		<path class="st3" d="M7.1,20l0.3,0.5c-0.1,0.1-0.3,0.2-0.5,0.3s-0.5,0.1-0.7,0.1c-0.6,0-1.1-0.2-1.4-0.5c-0.4-0.4-0.6-0.8-0.6-1.4
			c0-0.6,0.2-1.1,0.5-1.4c0.3-0.4,0.8-0.6,1.5-0.6c0.5,0,0.9,0.1,1.2,0.4L7,17.8c-0.3-0.2-0.6-0.3-0.9-0.3c-0.4,0-0.7,0.1-0.9,0.4
			c-0.2,0.2-0.4,0.6-0.4,1c0,0.4,0.1,0.7,0.4,1c0.3,0.3,0.6,0.4,1,0.4C6.5,20.3,6.8,20.2,7.1,20z"/>
		<path class="st3" d="M9.6,19.8c0-0.1,0-0.2-0.1-0.3c-0.1-0.1-0.2-0.2-0.3-0.2c-0.1-0.1-0.3-0.1-0.4-0.2c-0.2-0.1-0.3-0.2-0.4-0.2
			S8,18.7,8,18.5S7.8,18.2,7.8,18c0-0.3,0.1-0.6,0.3-0.8C8.4,17,8.7,16.9,9,16.9c0.5,0,0.9,0.1,1.1,0.4l-0.4,0.5
			c-0.2-0.2-0.4-0.3-0.7-0.3c-0.2,0-0.3,0-0.4,0.1c-0.1,0.1-0.1,0.2-0.1,0.3c0,0.1,0,0.1,0,0.2s0.1,0.1,0.1,0.1c0,0,0.1,0.1,0.2,0.1
			c0.1,0,0.1,0.1,0.2,0.1c0,0,0.1,0.1,0.2,0.1c0.1,0,0.2,0.1,0.2,0.1c0.2,0.1,0.3,0.2,0.4,0.2c0.1,0.1,0.2,0.2,0.3,0.3
			c0.1,0.2,0.1,0.3,0.1,0.5c0,0.3-0.1,0.6-0.4,0.8c-0.2,0.2-0.6,0.3-0.9,0.3c-0.3,0-0.5-0.1-0.8-0.2c-0.2-0.1-0.4-0.3-0.5-0.4
			l0.4-0.5c0.1,0.1,0.2,0.2,0.4,0.3s0.3,0.1,0.5,0.1c0.2,0,0.3,0,0.4-0.1S9.6,20,9.6,19.8z"/>
		<path class="st3" d="M13.5,17h0.7l-1.5,3.9h-0.5L10.5,17h0.7l1.1,2.9L13.5,17z"/>
	</g>
</g>
</svg>
