<?xml version="1.0" encoding="utf-8"?>
<!-- Generator: Adobe Illustrator 21.0.0, SVG Export Plug-In . SVG Version: 6.00 Build 0)  -->
<svg class="header__top-favorite-img" version="1.1" id="Слой_1" xmlns="http://www.w3.org/2000/svg" xmlns:xlink="http://www.w3.org/1999/xlink" x="0px" y="0px"
	 viewBox="0 0 180.4 169.4" style="enable-background:new 0 0 180.4 169.4;" xml:space="preserve">
<g>
	<path d="M143.2,169.4c-0.8,0-1.5-0.2-2.2-0.6l-50.7-29.1l-50.7,29.1c-1.5,0.9-3.4,0.8-4.9-0.3c-1.4-1-2.1-2.8-1.8-4.6l12-57.2
		L1.5,67.4c-1.3-1.2-1.8-3-1.3-4.7s2-2.9,3.8-3.1l58.1-6.3L86.1,0c0.7-1.6,2.3-2.7,4.1-2.7c1.8,0,3.4,1,4.1,2.7l23.9,53.4l58.1,6.3
		c1.8,0.2,3.3,1.4,3.8,3.1c0.5,1.7,0.1,3.5-1.3,4.7l-43.4,39.3l12,57.2c0.4,1.7-0.3,3.5-1.8,4.6C145,169.1,144.1,169.4,143.2,169.4z
		 M90.2,130c0.8,0,1.5,0.2,2.2,0.6l44.3,25.4L126.2,106c-0.3-1.6,0.2-3.2,1.4-4.3l37.8-34.3L114.7,62c-1.6-0.2-3-1.2-3.6-2.6
		L90.2,12.8L69.3,59.4c-0.7,1.5-2,2.5-3.6,2.6L15,67.5l37.8,34.3c1.2,1.1,1.7,2.7,1.4,4.3L43.7,156L88,130.6
		C88.7,130.2,89.4,130,90.2,130z"/>
</g>
</svg>
