<?xml version="1.0" encoding="utf-8"?>
<!-- Generator: Adobe Illustrator 21.0.0, SVG Export Plug-In . SVG Version: 6.00 Build 0)  -->
<svg version="1.1" id="Layer_1" xmlns="http://www.w3.org/2000/svg" xmlns:xlink="http://www.w3.org/1999/xlink" x="0px" y="0px"
	 viewBox="0 0 146.4 57.8" style="enable-background:new 0 0 146.4 57.8;" xml:space="preserve">
<style type="text/css">
	.st0{fill-rule:evenodd;clip-rule:evenodd;fill:#FF0033;}
	.st1{fill-rule:evenodd;clip-rule:evenodd;fill:#003366;}
	.st2{fill:#003366;}
</style>
<g>
	<g>
		<g>
			<g>
				<path class="st0" d="M8.7,0.2C5.4,0.2-0.1,3.9,0,9.5v47l6.5-14.4V13.4L8.7,9l1.9,4v43.5L17,42.1V8.9C17.3,5.2,13.5,0.2,8.7,0.2z
					 M14.8,1.8c3.1,3.1,2.9,6.6,3.2,9.9l1.5-2.6l1.7,3.6v43.8l6.4-14.2v-33C26.9,0.1,18.6-1.6,14.8,1.8z M38.1,13.7l-5.1,1.8V20
					l-4.4,9.4v10.7l4.3-9.2v5.4L38.1,13.7z"/>
				<path class="st0" d="M38.6,0c-1.8,0-3.2,1.5-3.2,3.2c0,1.8,1.5,3.2,3.2,3.2c1.8,0,3.2-1.4,3.2-3.2C41.8,1.5,40.3,0,38.6,0z
					 M40.2,5.3l-0.1-0.1l-0.9-1.7c0.4-0.2,0.7-0.5,0.6-1.2c-0.1-1-0.7-1-1-1.1h-1.7v0.1c0.3,0,0.3,0.1,0.4,0.3l0,3
					c0,0.4-0.1,0.5-0.4,0.6v0.1h1.5V5.3c-0.2,0-0.4,0-0.4-0.3V3.5l0.2,0l0.9,1.8l0.7,0c-0.4,0.3-0.9,0.5-1.5,0.5
					c-1.4,0-2.6-1.2-2.6-2.6c0-1.4,1.2-2.6,2.6-2.6c1.4,0,2.6,1.2,2.6,2.6C41.2,4.1,40.8,4.8,40.2,5.3z M39.1,2.9
					c-0.1,0.3-0.4,0.5-0.9,0.5V1.5C38.7,1.4,39,1.7,39.1,2C39.2,2.3,39.1,2.8,39.1,2.9z"/>
				<path class="st1" d="M37.8,39.4l-6.2,10.6L35,39.4h-3.8l-8.1,17.8h2.8l5.2-11.3l-3.5,11.3h1.4l6.6-10.8l-4.9,10.7h2.8l8-17.7
					H37.8z M43.3,50.8c-0.5,1.4-1.1,2.3-2,3.1c-0.8,0.4-1.2,0-1-1.1l1.8-3.9H47c1.1-2.1,2.2-4.3,2.8-6.5c0.4-1.9,0.3-3.3-1.6-3.5
					c-3.2-0.4-5.5,2.6-6.4,4.5c-1.8,3.5-3.4,6.9-4.6,10.4c-0.9,2.7,0.5,4,2,3.9c2.7-0.2,5.9-3.3,6.9-7H43.3z M45.2,43
					c0.7-0.9,1.6-0.3,1.3,0.4c-0.2,0.8-0.6,1.7-0.9,2.4h-1.9C44,44.8,44.5,44,45.2,43z M57.5,43.6l1.8-4.2h-6L45,57.3h3.2l6.3-13.6
					H57.5z M65,39c-4.5-0.4-5.7,3.9-7.1,6.3h2.9c0.3-0.9,0.7-1.8,1.8-2.7c0.9-0.3,0.9,0.4,0.8,0.8c-0.5,1.7-1.8,2.4-3,3.1
					c-1.7,0.8-3.5,2.1-4.3,3.2c-1.6,2-2.4,4.1-2.9,6.2c0.1,1.2,0.6,2.1,1.8,1.7c1.2,0,2.1-1.1,3.1-2l-0.4,1.5h2.8l6.4-14.7
					C67.4,41.1,67.4,39.3,65,39z M58.1,53.8c-0.3,0.2-1.1,0.3-0.9-0.7c0.6-2.1,1.8-3.3,3.7-4.3C60.5,50.4,59.1,53,58.1,53.8z
					 M85.8,39c-4.5-0.4-5.7,3.9-7.1,6.3h2.9c0.3-0.9,0.7-1.8,1.7-2.7c0.9-0.3,0.9,0.4,0.8,0.8c-0.5,1.7-1.8,2.4-3,3.1
					c-1.7,0.8-3.5,2.1-4.3,3.2c-1.6,2-2.4,4.1-2.9,6.2c0.1,1.2,0.6,2.1,1.8,1.7c1.2,0,2.1-1.1,3.1-2l-0.4,1.5h2.8l6.4-14.7
					C88.2,41.1,88.2,39.3,85.8,39z M78.9,53.8c-0.3,0.2-1.1,0.3-0.9-0.7c0.6-2.1,1.8-3.3,3.6-4.3C81.3,50.4,80,53,78.9,53.8z
					 M71.1,39.5l-5.8,12.6c-0.4,0.9-0.9,1.8-2.3,1.8l-1.5,3.4c2,0.8,3.3-0.4,4.2-1.2c2.3-2.5,4.7-8.3,6.4-12.4h1.8l-6.2,13.6h3.1
					l8.1-17.8H71.1z M95.4,38.1c2.2-0.1,4-1.1,5.4-4.1h-1.2c-0.7,1-1.2,1.6-2.7,1.6c-0.8-0.2-1.1-0.3-0.9-1.5h-1.3
					C93.6,36.5,94.1,38.1,95.4,38.1z M96.3,39.3l-6.2,9.2l3.9-9.1h-2.9l-8,17.9l3,0l6.6-9.4l-4.2,9.4l2.9,0l8.1-18.1H96.3z
					 M105.7,43.6l1.9-4.2h-6.6l-1.8,4.1h1.8l-6.3,13.8l2.9,0.1l6.4-13.8H105.7z M118.2,39c-4.5-0.4-5.7,3.9-7.1,6.3h2.9
					c0.3-0.9,0.7-1.8,1.7-2.7c0.9-0.3,0.9,0.4,0.8,0.8c-0.5,1.7-1.8,2.4-3,3.1c-1.7,0.8-3.5,2.1-4.3,3.2c-1.6,2-2.4,4.1-2.9,6.2
					c0.1,1.2,0.6,2.1,1.8,1.7c1.2,0,2-1.1,3.1-2l-0.4,1.5h2.8l6.4-14.7C120.6,41.1,120.6,39.3,118.2,39z M111.4,53.8
					c-0.3,0.2-1.1,0.3-0.9-0.7c0.6-2.1,1.8-3.3,3.7-4.3C113.8,50.4,112.4,53,111.4,53.8z M108.6,47.3h-4.3l-1.6,3.6l4.4,0
					L108.6,47.3z M137.1,43.6l1.9-4.2h-6.6l-1.8,4.1h1.8L126,57.3l2.9,0.1l6.4-13.8H137.1z M125.7,48.1c2.2-0.9,6.2-7.5,2.8-8.7
					h-4.8l-8,17.9l4.9-0.1C123.2,57.2,127.7,50.9,125.7,48.1z M122.7,52.5c-0.6,1.1-0.9,1.6-2.4,1.5l1.7-3.8
					C123.7,49.5,123.3,51.3,122.7,52.5z M123.6,46.7l1.6-3.6c1.5-0.1,1,1.1,0.4,2.4C125.2,46.2,124.8,46.8,123.6,46.7z M141,40.2
					c-3.5,3.5-7.1,12.2-7.6,14.7c-0.4,3.2,2.1,3.5,4.4,2.5c3.9-2,7.9-12.5,8.5-14.9C147.1,38.8,144.1,37.9,141,40.2z M142.7,44.2
					c-1.4,3.4-2.8,6.5-4.6,9.6c-0.6,0.5-1.4,0.4-1.2-0.5c1.4-3.2,2.7-6.6,4.5-9.5C142.4,42.6,143,43.4,142.7,44.2z"/>
				<path class="st2" d="M44.6,28.7v-0.3c0-0.4,0-0.8,0.1-1c0-0.3,0.1-0.5,0.3-0.7c0.1-0.2,0.4-0.4,0.7-0.5C46,26.1,46.4,26,47,26
					h0.4c0.6,0,1,0,1.4,0c0.4,0,0.7,0.1,0.9,0.2c0.3,0.1,0.4,0.3,0.6,0.5c0.1,0.2,0.2,0.5,0.2,0.9c0,0.8,0,1.4,0,1.8
					c0,0.3-0.1,0.6-0.2,0.8c-0.1,0.2-0.2,0.4-0.4,0.5c-0.2,0.1-0.4,0.2-0.8,0.3c-0.3,0.1-0.7,0.1-1.2,0.1c-0.1,0-0.2,0-0.3,0
					c-0.1,0-0.2,0-0.3,0c-0.5,0-0.8,0-1.1-0.1c-0.3-0.1-0.6-0.1-0.8-0.2c-0.2-0.1-0.4-0.3-0.5-0.4c-0.1-0.2-0.2-0.4-0.2-0.8
					C44.6,29.4,44.6,29.1,44.6,28.7L44.6,28.7z M45.5,28.6v0.8c0,0.3,0.1,0.6,0.2,0.8c0.1,0.2,0.3,0.3,0.5,0.4
					c0.2,0.1,0.6,0.1,1.1,0.1c0.5,0,0.9,0,1.1,0c0.3,0,0.5-0.1,0.7-0.2c0.2-0.1,0.3-0.2,0.4-0.4c0.1-0.2,0.1-0.4,0.2-0.7
					c0-0.4,0-0.9,0-1.6c0-0.4-0.1-0.7-0.2-0.8c-0.1-0.2-0.3-0.3-0.6-0.3c-0.3,0-0.7-0.1-1.4-0.1h-0.3c-0.5,0-0.8,0-1,0.1
					c-0.2,0.1-0.4,0.2-0.5,0.3c-0.1,0.2-0.2,0.4-0.2,0.8L45.5,28.6L45.5,28.6z M57.9,26.1v5h-0.9v-2.3l0-2.2h-4.4v4.5h-0.8v-5H57.9
					L57.9,26.1z M62.6,26.6v4.5h-0.9v-4.5h-2.4v-0.5H65v0.5H62.6L62.6,26.6z M66.4,28.7v-0.3c0-0.4,0-0.8,0.1-1
					c0-0.3,0.1-0.5,0.3-0.7c0.2-0.2,0.4-0.4,0.7-0.5c0.3-0.1,0.8-0.2,1.4-0.2h0.3c0.6,0,1,0,1.4,0c0.4,0,0.7,0.1,0.9,0.2
					c0.3,0.1,0.4,0.3,0.6,0.5c0.1,0.2,0.2,0.5,0.2,0.9c0,0.8,0,1.4,0,1.8c0,0.3-0.1,0.6-0.2,0.8c-0.1,0.2-0.2,0.4-0.4,0.5
					c-0.2,0.1-0.4,0.2-0.8,0.3c-0.3,0.1-0.7,0.1-1.2,0.1c-0.1,0-0.2,0-0.3,0c-0.1,0-0.3,0-0.3,0c-0.5,0-0.8,0-1.2-0.1
					c-0.3-0.1-0.6-0.1-0.8-0.2c-0.2-0.1-0.4-0.3-0.5-0.4c-0.1-0.2-0.2-0.4-0.2-0.8C66.4,29.4,66.4,29.1,66.4,28.7L66.4,28.7z
					 M67.3,28.6v0.8c0,0.3,0.1,0.6,0.2,0.8c0.1,0.2,0.3,0.3,0.5,0.4c0.2,0.1,0.6,0.1,1.1,0.1c0.5,0,0.9,0,1.1,0
					c0.3,0,0.5-0.1,0.7-0.2c0.2-0.1,0.3-0.2,0.4-0.4c0.1-0.2,0.1-0.4,0.2-0.7c0-0.4,0-0.9,0-1.6c0-0.4-0.1-0.7-0.2-0.8
					c-0.1-0.2-0.3-0.3-0.6-0.3c-0.3,0-0.7-0.1-1.4-0.1H69c-0.5,0-0.8,0-1,0.1c-0.2,0.1-0.4,0.2-0.5,0.3c-0.1,0.2-0.1,0.4-0.2,0.8
					L67.3,28.6L67.3,28.6z M73.8,31.1v-5h3.6c0.5,0,0.8,0,1.1,0.1c0.3,0.1,0.5,0.2,0.6,0.4c0.1,0.2,0.2,0.4,0.2,0.7
					c0,0.3-0.1,0.6-0.2,0.7c-0.1,0.2-0.4,0.3-0.8,0.4c0.5,0.1,0.8,0.2,1,0.4c0.2,0.2,0.2,0.4,0.2,0.8c0,0.3-0.1,0.6-0.2,0.8
					c-0.1,0.2-0.3,0.4-0.6,0.5c-0.3,0.1-0.7,0.2-1.2,0.2H73.8L73.8,31.1z M76.9,30.6c0.5,0,0.8,0,1.1-0.1c0.2,0,0.4-0.1,0.5-0.3
					c0.1-0.1,0.2-0.3,0.2-0.6c0-0.3-0.1-0.5-0.2-0.7c-0.1-0.1-0.4-0.2-0.9-0.2h-3v1.8H76.9L76.9,30.6z M74.6,28.3h2.4
					c0.4,0,0.7,0,0.9-0.1c0.2-0.1,0.4-0.1,0.4-0.3c0.1-0.1,0.1-0.3,0.1-0.6c0-0.3-0.1-0.5-0.2-0.6c-0.2-0.1-0.5-0.2-0.9-0.2h-2.7
					V28.3L74.6,28.3z M80.8,26.1h0.8v1.9h2.2c0,0,0.2,0,0.5,0c0.3,0,0.5,0,0.7,0c0.2,0,0.3,0,0.5,0.1c0.2,0,0.3,0.1,0.4,0.2
					c0.2,0.1,0.3,0.3,0.4,0.5c0.1,0.2,0.1,0.4,0.1,0.6c0,0.6-0.2,1.1-0.6,1.3c-0.2,0.1-0.4,0.2-0.6,0.2c-0.2,0-0.5,0-0.9,0h-3.5
					V26.1L80.8,26.1z M81.7,30.6H84c0,0,0.1,0,0.2,0c0.1,0,0.1,0,0.2,0c0.4,0,0.6,0,0.8-0.1c0.2-0.1,0.3-0.2,0.4-0.3
					c0.1-0.1,0.1-0.4,0.1-0.6c0-0.3-0.1-0.5-0.2-0.7c-0.1-0.1-0.3-0.2-0.6-0.3c-0.3,0-0.6-0.1-1.1-0.1h-2V30.6L81.7,30.6z
					 M87.2,26.1H88v5h-0.9V26.1L87.2,26.1z M89.5,26.1h0.8v4.6l4.2-4.6h1.4v5H95v-4.5l-4.2,4.5h-1.4V26.1L89.5,26.1z M91.2,25.5h3
					v0.5h-3V25.5L91.2,25.5z M106.7,30.6h0.5v0.9h-0.8v-0.4h-5.8v-5h0.8v4.5h4.4v-4.5h0.8V30.6L106.7,30.6z M109.5,26.6v1.7h3.8v0.5
					h-3.8v1.8h4v0.5h-4.8v-5h4.8v0.5H109.5L109.5,26.6z M120.9,26.1v5h-0.9v-2.3h-4.4v2.3h-0.8v-5h0.8v2.2h4.4v-2.2H120.9
					L120.9,26.1z M125.6,26.6v4.5h-0.9v-4.5h-2.4v-0.5h5.7v0.5H125.6L125.6,26.6z M129.4,31.1v-5h3.5c0.3,0,0.6,0,0.8,0.1
					c0.3,0,0.5,0.1,0.6,0.2c0.2,0.2,0.4,0.3,0.5,0.6c0.1,0.2,0.1,0.5,0.1,0.7c0,0.2,0,0.5-0.1,0.6c-0.1,0.2-0.2,0.3-0.4,0.5
					c-0.1,0.1-0.3,0.2-0.5,0.2c-0.2,0-0.3,0.1-0.5,0.1c-0.2,0-0.4,0-0.7,0c-0.3,0-0.4,0-0.5,0h-2.2v2H129.4L129.4,31.1z M132.2,28.6
					c0.5,0,0.9,0,1.1-0.1c0.3,0,0.4-0.1,0.6-0.3c0.1-0.1,0.2-0.4,0.2-0.7c0-0.3,0-0.5-0.1-0.6c-0.1-0.1-0.2-0.3-0.3-0.3
					c-0.2-0.1-0.5-0.1-0.8-0.1h-2.6v2.1H132.2L132.2,28.6z"/>
			</g>
		</g>
	</g>
</g>
</svg>
