<?xml version="1.0" encoding="utf-8"?>
<!-- Generator: Adobe Illustrator 21.0.0, SVG Export Plug-In . SVG Version: 6.00 Build 0)  -->
<svg version="1.1" id="Слой_2" xmlns="http://www.w3.org/2000/svg" xmlns:xlink="http://www.w3.org/1999/xlink" x="0px" y="0px"
	 viewBox="0 0 814.3 453.5" style="enable-background:new 0 0 814.3 453.5;" xml:space="preserve">
<g>
	<path d="M542.9,252.3c0-5,0-41.9,0-62.7c0-51.6-19-107.6-90-138.6c0,0,6-51-46-51s-46,51-46,51c-71,31-90,87-90,138.6
		c0,20.8,0,57.8,0,62.7c0,64-45,110.7-45,110.7h181h181C587.9,363,542.9,316.3,542.9,252.3z"/>
</g>
<g>
	<path d="M452.1,408.3c0,25-20.2,45.2-45.2,45.2c-25,0-45.2-20.2-45.2-45.2H452.1z"/>
</g>
<g>
	<path d="M132.7,389.4c-1-1.6-23.6-39.9-34.8-98.8c-14.8-78-2.4-156,35.6-225.6l41.2,22.6c-33,60.3-43.4,125-31,192.6
		c9.4,51.2,29.1,84.9,29.3,85.3L132.7,389.4z"/>
</g>
<g>
	<path d="M53,436c-1.2-2.2-30.1-55.4-44.8-133.2c-8.6-45.9-10.5-90.9-5.5-134C8.9,114.7,26,63.7,53.3,17.4l40.5,23.9
		c-43.7,74-57,159.1-39.4,252.9c13.2,70.5,39.5,118.7,39.7,119.2L53,436z"/>
</g>
<g>
	<path d="M681.5,389.4l-40.3-24.1c0.2-0.3,19.9-34,29.2-85.2c12.4-67.5,1.9-132.3-31-192.6L680.7,65
		c38.1,69.6,50.4,147.6,35.6,225.6C705.1,349.5,682.5,387.8,681.5,389.4z"/>
</g>
<g>
	<path d="M761.3,436l-41.2-22.7c0.3-0.5,27-49.9,40-120.7c17.2-93.2,3.8-177.8-39.7-251.4l40.5-23.9c27.4,46.3,44.4,97.3,50.6,151.5
		c4.9,43,3.1,88.1-5.5,134C791.4,380.6,762.5,433.8,761.3,436z"/>
</g>
<style>
	path{
		fill: #fff;
	}
</style>
</svg>
