<?xml version="1.0" encoding="utf-8"?>
<!-- Generator: Adobe Illustrator 21.0.0, SVG Export Plug-In . SVG Version: 6.00 Build 0)  -->
<svg version="1.1" id="Слой_1" xmlns="http://www.w3.org/2000/svg" xmlns:xlink="http://www.w3.org/1999/xlink" x="0px" y="0px"
	 viewBox="0 0 312.3 312.3" style="enable-background:new 0 0 312.3 312.3;" xml:space="preserve">
<style type="text/css">
	.st0{fill:#003366;}
	.st1{fill:#FFFFFF;}
</style>
<circle class="st0" cx="156.1" cy="156.1" r="156.1"/>
<path class="st1" d="M221.1,181.6c-7.1-2.1-12.9-3.9-20.7-5.3c-7.8-1.4-17.5,2.5-23,11.9c0,0-17.4-2.5-36.3-22.4s-17.2-31-17.2-31
	c9.4-5.5,13.3-15.2,11.9-23c-1.4-7.8-3.2-13.6-5.3-20.7s-10.8-14.9-18.8-14.9s-26.9,7.8-26.9,26c0,16.8,3.1,33.3,10,48.7
	c9,20.1,23.8,38,41.3,51.3c17.1,13.1,37.6,21.5,59.1,24.1c4.9,0.6,9.9,0.9,14.9,0.9c18.1,0,26-18.8,26-26.9S228.2,183.7,221.1,181.6
	z"/>
</svg>
