<?xml version="1.0" encoding="utf-8"?>
<!-- Generator: Adobe Illustrator 21.0.0, SVG Export Plug-In . SVG Version: 6.00 Build 0)  -->
<svg version="1.1" id="Слой_1" xmlns="http://www.w3.org/2000/svg" xmlns:xlink="http://www.w3.org/1999/xlink" x="0px" y="0px"
	 viewBox="0 0 329.8 329.3" style="enable-background:new 0 0 329.8 329.3;" xml:space="preserve">
<path d="M120.4,33c48.2,0,87.4,39.2,87.4,87.4s-39.2,87.4-87.4,87.4S33,168.5,33,120.4S72.2,33,120.4,33 M120.4,0
	C53.9,0,0,53.9,0,120.4s53.9,120.4,120.4,120.4s120.4-53.9,120.4-120.4S186.8,0,120.4,0L120.4,0z"/>
<path d="M322,313.4l-8.6,8.6c-9.5,9.5-24.8,9.5-34.3,0l-98.2-98.2c-9.5-9.5-9.5-24.8,0-34.3l8.6-8.6c9.5-9.5,24.8-9.5,34.3,0
	l98.2,98.2C331.5,288.5,331.5,303.9,322,313.4z"/>
<path d="M155.9,134.2c4.3-1,8.7-1.5,13-1.6c-1.3-33.9-29.1-60.9-63.3-60.9c-0.4,0-0.9,0-1.3,0c0,0.4,0.1,0.8,0.1,1.2
	c0.2,3.8-0.2,7.8-1.1,11.8c0.8,0,1.5-0.1,2.3-0.1C133.1,84.8,155.5,106.9,155.9,134.2z"/>
</svg>
